<?xml version="1.0" encoding="utf-8"?>
<!-- Generator: Adobe Illustrator 22.0.1, SVG Export Plug-In . SVG Version: 6.00 Build 0)  -->
<svg version="1.1" id="Layer_1" xmlns="http://www.w3.org/2000/svg" xmlns:xlink="http://www.w3.org/1999/xlink" x="0px" y="0px"
	 viewBox="0 0 50 50" style="enable-background:new 0 0 50 50;" xml:space="preserve">
<style type="text/css">
	.st0{fill:#FFFFFF;}
	.st1{fill:none;stroke:#FFFFFF;stroke-miterlimit:10;}
</style>
<g>
	<path class="st0" d="M40.3,13.6c-0.2-0.2-0.1-0.7-0.1-1.1C40.1,10.6,40.1,8.8,40,7c0-0.8-0.6-1.1-1.3-0.9c-1.8,0.7-3.6,1.5-5.3,2.2
		c-0.5,0.2-1.2,0.4-1.7,0.3c-3.8-0.9-7.5-0.9-11.3,0c-0.5,0.1-1.2-0.1-1.7-0.3c-1.8-0.7-3.5-1.5-5.2-2.2c-0.8-0.3-1.4,0.1-1.5,1
		c-0.1,1.8-0.1,3.5-0.2,5.3c0,0.4,0,1-0.3,1.3C6,21.3,10.5,32,19.7,33.3c0.4,0.1,0.8,0.1,1.2,0.2c-0.4,1.1-0.8,2.2-1.2,3.2
		c-0.1,0.3-0.4,0.5-0.7,0.6c-2.5,1.1-5.1,0.3-6.7-1.9c-0.6-0.9-1.4-1.8-2.2-2.5c-0.9-0.7-2-1.1-3.4-0.4c0.4,0.4,0.7,0.7,1,1.1
		c0.9,1.1,2.2,2.1,2.7,3.4c1.4,3.5,4.5,5,8.3,4.3c0.2,0,0.4,0,0.8-0.1c0,1.6,0.1,3.2,0,4.8c0,0.4-0.2,0.6-0.5,0.8
		c0,0.5-0.2,1-0.4,1.5c0,0.2,0,0.3-0.1,0.5c0.2,0.1,0.5,0.1,0.7,0.2c1.5,0.4,3,0.6,4.5,0.9h4.5c1.7-0.4,3.5-0.7,5.2-1.1
		c-0.4-0.6-0.6-1.3-0.6-2.1c-0.2-0.3-0.4-0.7-0.4-1.2c0-2.1,0-4.1,0-6.2c0.1-2.1-0.2-4-1.6-5.8c1.2-0.3,2.3-0.5,3.3-0.7
		c4.9-1.3,7.6-4.6,8.3-9.7C42.9,19.7,42.6,16.4,40.3,13.6z"/>
	<rect x="0.4" y="0.5" class="st1" width="49.1" height="49.1"/>
</g>
</svg>
