<?xml version="1.0" encoding="utf-8"?>
<!-- Generator: Adobe Illustrator 22.0.1, SVG Export Plug-In . SVG Version: 6.00 Build 0)  -->
<svg version="1.1" id="Layer_1" xmlns="http://www.w3.org/2000/svg" xmlns:xlink="http://www.w3.org/1999/xlink" x="0px" y="0px"
	 viewBox="0 0 50 50" style="enable-background:new 0 0 50 50;" xml:space="preserve">
<style type="text/css">
	.st0{fill:none;}
	.st1{fill:#FFFFFF;}
	.st2{fill:none;stroke:#FFFFFF;stroke-miterlimit:10;}
</style>
<path id="XMLID_763_" class="st0" d="M51.3,20.5c-0.4,14.4-11.8,25-26.5,24.7C11.4,44.8,0.3,33.3,0.6,19.9
	C0.9,6.1,12.5-4.7,26.6-4.3C40.2-3.9,51.2,6.4,51.3,20.5z M27.1,16.4c-1.5,0-2.9,0-4.4,0c0,5.4,0,10.8,0,16.1c1.7,0,3.1,0,4.7,0
	c0-1.1,0-2.2,0-3.1c0-2-0.1-4.1,0.1-6.1c0.2-1.9,1.4-2.8,3-2.8c1.6,0,2.6,1,2.7,3c0.1,2.5,0.1,4.9,0.1,7.5c0,0.6,0,1.1,0,1.6
	c1.8,0,3.4,0,4.8,0c0-4,0.1-7.8,0-11.7c-0.1-2.5-1.8-4-4.3-4.3c-2.4-0.3-4.6,0-6.5,1.8C27.2,17.5,27.2,17,27.1,16.4z M13.6,16.4
	c0,5.4,0,10.8,0,16.1c2,0,3.8,0,5.7,0c0-5.4,0-10.8,0-16.1C17.3,16.4,15.5,16.4,13.6,16.4z M16.5,8.3c-1.7,0-3,1.2-3,2.9
	c0,1.5,1.3,2.9,2.8,2.9c1.6,0,2.9-1.2,2.9-2.9C19.4,9.6,18.1,8.3,16.5,8.3z"/>
<path id="XMLID_721_" class="st1" d="M27.1,16.4c0,0.6,0.1,1.1,0.1,1.8c1.9-1.8,4.1-2.2,6.5-1.8c2.5,0.4,4.2,1.8,4.3,4.3
	c0.2,3.8,0,7.7,0,11.7c-1.5,0-3,0-4.8,0c0-0.5,0-1.1,0-1.6c0-2.5,0-4.9-0.1-7.5c-0.1-1.8-1.2-2.9-2.7-3c-1.7-0.1-2.8,0.8-3,2.8
	c-0.2,2-0.1,4.1-0.1,6.1c0,1,0,2,0,3.1c-1.6,0-3.1,0-4.7,0c0-5.3,0-10.6,0-16.1C24.2,16.4,25.7,16.4,27.1,16.4z"/>
<path id="XMLID_720_" class="st1" d="M13.6,16.4c1.9,0,3.7,0,5.7,0c0,5.3,0,10.6,0,16.1c-1.9,0-3.7,0-5.7,0
	C13.6,27.1,13.6,21.8,13.6,16.4z"/>
<path id="XMLID_719_" class="st1" d="M16.5,8.3c1.6,0,2.8,1.3,2.8,2.9c0,1.6-1.4,2.9-2.9,2.9s-2.8-1.3-2.8-2.9
	C13.5,9.5,14.9,8.3,16.5,8.3z"/>
<rect x="0.6" y="0.2" class="st2" width="48.6" height="49.8"/>
</svg>
